<?xml version="1.0" encoding="utf-8"?>
<!-- Generator: Adobe Illustrator 16.0.0, SVG Export Plug-In . SVG Version: 6.00 Build 0)  -->
<!DOCTYPE svg PUBLIC "-//W3C//DTD SVG 1.1//EN" "http://www.w3.org/Graphics/SVG/1.1/DTD/svg11.dtd">
<svg version="1.1" id="Layer_1" xmlns="http://www.w3.org/2000/svg" xmlns:xlink="http://www.w3.org/1999/xlink" x="0px" y="0px"
	 width="100px" height="100px" viewBox="0 0 100 100" enable-background="new 0 0 100 100" xml:space="preserve">
<g>
	<path d="M50.008,36.846c1.563,0.001,3.133-0.076,4.69-0.027C53.141,36.77,51.57,36.847,50.008,36.846
		c-1.635-0.001-3.273-0.065-4.903-0.021C46.735,36.781,48.373,36.845,50.008,36.846z"/>
	<path fill="#FFFFFF" d="M70.039,62.356c-1.061-7.376-4.402-13.655-9.462-19.072c-1.505-1.611-3.21-2.393-5.521-2.272
		c-3.694,0.191-7.408-0.018-11.107,0.095c-1.057,0.033-2.368,0.299-3.102,0.966c-6.665,6.048-10.7,13.482-11.063,22.599
		c-0.17,4.285,1.901,6.956,6.151,7.555c4.582,0.646,9.247,0.704,13.027,0.961c5.139-0.239,9.441-0.136,13.652-0.708
		C68.724,71.648,70.918,68.469,70.039,62.356z M55.604,61.658c-0.35,0.713-0.799,1.278-1.35,1.694
		c-0.55,0.416-1.341,0.732-2.374,0.948v2.976h-2.097v-2.909c-0.973-0.111-1.802-0.357-2.486-0.735
		c-0.936-0.521-1.806-1.212-2.608-2.073l2.118-2.174c1.36,1.448,2.676,2.174,3.947,2.174c0.647,0,1.204-0.226,1.667-0.676
		c0.465-0.45,0.697-0.979,0.697-1.588c0-0.513-0.148-0.962-0.446-1.349c-0.304-0.387-0.892-0.781-1.762-1.182
		c-1.769-0.818-2.965-1.467-3.589-1.946c-0.624-0.479-1.091-1.018-1.399-1.617c-0.309-0.597-0.463-1.234-0.463-1.91
		c0-1.122,0.409-2.083,1.226-2.882c0.818-0.798,1.851-1.229,3.099-1.287v-1.114h2.097v1.26c0.722,0.17,1.332,0.4,1.834,0.69
		c0.501,0.29,1.095,0.78,1.778,1.473l-2.152,2.094c-0.98-1.01-1.951-1.515-2.91-1.515c-0.565,0-1.023,0.149-1.376,0.451
		c-0.353,0.301-0.53,0.648-0.53,1.042c0,0.335,0.156,0.665,0.468,0.992c0.305,0.335,0.922,0.691,1.851,1.071
		c1.65,0.683,2.78,1.267,3.39,1.749c0.609,0.483,1.077,1.063,1.404,1.74c0.326,0.676,0.49,1.435,0.49,2.273
		C56.127,60.168,55.953,60.944,55.604,61.658z"/>
	<path fill="#FFFFFF" d="M45.375,35.451c1.484-0.234,3.036-0.039,4.557-0.039c1.522,0,3.075-0.199,4.556,0.039
		c3.721,0.6,5.657-1.586,7.081-4.421c0.443-0.883,0.648-2.499,0.148-3.085c-0.639-0.748-2.174-1.217-3.194-1.045
		c-1.741,0.293-3.468,1.018-5.046,1.854c-2.402,1.273-4.63,1.238-7.038,0.035c-1.684-0.843-3.485-1.586-5.317-1.941
		c-0.915-0.178-2.335,0.342-2.936,1.049c-0.476,0.561-0.357,2.028,0.028,2.846C39.607,33.707,41.49,36.062,45.375,35.451z"/>
	<path fill="#FFFFFF" d="M50.008,36.846c-1.635-0.001-3.273-0.065-4.903-0.021c-0.543,0.014-1.086,0.04-1.626,0.084
		c-0.747,0.061-1.434,0.849-2.148,1.305c0.671,0.502,1.331,1.416,2.018,1.438c4.353,0.134,8.713,0.134,13.066,0.011
		c0.737-0.021,1.451-0.857,2.177-1.316c-0.777-0.5-1.52-1.347-2.339-1.429c-0.517-0.053-1.033-0.082-1.554-0.099
		C53.141,36.77,51.57,36.847,50.008,36.846z"/>
</g>
<g>
	<path fill="#FFFFFF" d="M50,99C22.981,99,1,77.02,1,50C1,22.981,22.981,1,50,1s49,21.981,49,49C99,77.02,77.019,99,50,99z
		 M50,1.899C23.477,1.899,1.899,23.478,1.899,50c0,26.523,21.578,48.101,48.101,48.101c26.523,0,48.102-21.577,48.102-48.101
		C98.102,23.478,76.523,1.899,50,1.899z"/>
</g>
</svg>
