<?xml version="1.0" encoding="utf-8"?>
<!-- Generator: Adobe Illustrator 16.0.0, SVG Export Plug-In . SVG Version: 6.00 Build 0)  -->
<!DOCTYPE svg PUBLIC "-//W3C//DTD SVG 1.1//EN" "http://www.w3.org/Graphics/SVG/1.1/DTD/svg11.dtd">
<svg version="1.1" id="Layer_1" xmlns="http://www.w3.org/2000/svg" xmlns:xlink="http://www.w3.org/1999/xlink" x="0px" y="0px"
	 width="100px" height="100px" viewBox="0 0 100 100" enable-background="new 0 0 100 100" xml:space="preserve">
<g>
	<path fill="#008088" d="M50,99C22.981,99,1,77.019,1,50S22.981,1,50,1c27.018,0,49,21.981,49,49S77.018,99,50,99z"/>
</g>
<g>
	<path fill-rule="evenodd" clip-rule="evenodd" fill="#FFFFFF" d="M48.568,51.69c-0.014,1.439,0.704,2.517,2.139,3.037
		c1.13,0.411,2.299,0.712,3.446,1.075c3.072,0.973,4.507,2.912,4.424,5.975c-0.076,2.836-1.842,4.961-4.789,5.699
		c-0.7,0.175-1.314,0.26-1.283,1.248c0.017,0.524-0.512,0.845-1.057,0.879c-0.48,0.029-1.099-0.172-1.102-0.623
		c-0.005-1.785-1.577-1.664-2.543-2.017c-1.925-0.699-2.941-2.073-3.535-3.866c-0.353-1.061,0.163-2.082,1.041-2.369
		c1.017-0.334,2.063,0.133,2.535,1.131c1.178,2.486,2.469,3.347,4.417,2.943c1.482-0.309,2.482-1.326,2.593-2.643
		c0.119-1.381-0.493-2.301-2.044-2.902c-1.391-0.539-2.868-0.833-4.222-1.49c-2.852-1.384-4.074-3.318-3.88-6.199
		c0.169-2.494,1.91-4.556,4.642-5.425c0.521-0.165,0.851-0.304,0.845-0.959c-0.007-0.709,0.437-1.17,1.189-1.164
		c0.748,0.006,1.194,0.479,1.173,1.181c-0.019,0.685,0.342,0.804,0.857,0.951c1.962,0.56,3.496,1.709,4.271,3.615
		c0.312,0.77,0.629,1.709,0.057,2.555c-0.414,0.609-1.05,0.776-1.758,0.712c-0.776-0.068-1.31-0.438-1.574-1.2
		c-0.229-0.656-0.262-1.386-0.712-1.962c-0.74-0.947-1.992-1.32-3.135-0.928C49.303,49.373,48.579,50.371,48.568,51.69z"/>
	<path fill-rule="evenodd" clip-rule="evenodd" fill="#FFFFFF" d="M33.715,72.914c-2.137-0.562-4.376-1.145-6.614-1.734
		c-0.16-0.041-0.306-0.127-0.465-0.175c-3.504-1.06-3.516-1.062-2.582-4.683c0.535-2.083,1.07-4.169,1.698-6.229
		c0.473-1.554,1.498-2.197,2.654-1.758c1.398,0.534,1.677,1.62,1.338,2.975c-0.188,0.76-0.896,1.72-0.323,2.264
		c0.77,0.727,1.378-0.461,2.083-0.743c2.998-1.192,5.985-2.411,8.979-3.613c0.388-0.155,0.783-0.129,1.023,0.257
		c0.312,0.5-0.207,0.695-0.448,0.895c-1.838,1.524-3.572,3.156-5.745,4.285c-1.07,0.557-1.873,1.681-2.93,2.402
		c-0.218,0.146-0.369,0.57-0.017,0.992c0.538,0.646,1.276,1.004,1.971,1.011c1.554,0.015,1.709,1.05,1.6,2.081
		C35.82,72.248,34.938,72.768,33.715,72.914z"/>
	<path fill-rule="evenodd" clip-rule="evenodd" fill="#FFFFFF" d="M68.205,68.387c-2.242-2.758-6.612-3.229-6.871-7.751
		c3.121,1.065,6.016,2.503,9.106,3.985c-0.218-1.155-0.362-2.118-0.582-3.064c-0.312-1.342,0.104-2.289,1.421-2.76
		c1.291-0.459,2.16,0.307,2.476,1.328c0.992,3.211,1.808,6.477,2.682,9.723c0.157,0.585-0.267,0.805-0.707,0.926
		c-3.394,0.937-6.77,1.961-10.203,2.718c-0.939,0.208-1.543-0.934-1.784-1.851c-0.302-1.158,0.34-1.937,1.355-2.334
		C66.06,68.934,67.08,68.713,68.205,68.387z"/>
	<path fill-rule="evenodd" clip-rule="evenodd" fill="#FFFFFF" d="M53,34.736c-0.114,1.423-0.262,2.846-0.338,4.273
		c-0.047,0.829-0.276,1.088-1.214,0.996c-2.155-0.214-2.129-0.132-2.462-2.779c-0.108-0.838,0.337-2.136-0.442-2.414
		c-0.916-0.326-1.458,0.986-2.024,1.615c-0.968,1.083-2.086,0.882-2.915,0.374c-1.03-0.632-1.205-1.842-0.363-2.898
		c2.096-2.637,4.809-4.668,7.079-7.142c0.498-0.543,1.018-0.187,1.435,0.229c2.198,2.184,4.415,4.347,6.571,6.572
		c0.862,0.89,1.035,2.003,0.176,2.999c-0.966,1.119-2.138,0.8-3.121,0.045c-0.756-0.582-1.338-1.396-1.998-2.107
		C53.256,34.578,53.127,34.657,53,34.736z"/>
</g>
</svg>
