<?xml version="1.0" encoding="utf-8"?>
<!-- Generator: Adobe Illustrator 16.0.0, SVG Export Plug-In . SVG Version: 6.00 Build 0)  -->
<!DOCTYPE svg PUBLIC "-//W3C//DTD SVG 1.1//EN" "http://www.w3.org/Graphics/SVG/1.1/DTD/svg11.dtd">
<svg version="1.1" id="Layer_1" xmlns="http://www.w3.org/2000/svg" xmlns:xlink="http://www.w3.org/1999/xlink" x="0px" y="0px"
	 width="100px" height="100px" viewBox="0 0 100 100" enable-background="new 0 0 100 100" xml:space="preserve">
<g>
	<path fill="#FFFFFF" d="M63.778,35.564v1.655c0,2.066-1.675,3.741-3.74,3.741h-0.576c-2.066,0-3.741-1.675-3.741-3.741v-1.655
		H44.531v1.655c0,2.066-1.674,3.741-3.74,3.741h-0.577c-2.066,0-3.741-1.675-3.741-3.741v-1.655h-5.657V69.31h38.366V35.564H63.778z
		 M66.303,66.714H33.697V45.125h32.606V66.714z"/>
	<rect x="44.682" y="47.974" fill="#FFFFFF" width="4.178" height="3.736"/>
	<rect x="44.682" y="54.114" fill="#FFFFFF" width="4.178" height="3.736"/>
	<rect x="44.682" y="60.637" fill="#FFFFFF" width="4.178" height="3.735"/>
	<rect x="37.971" y="54.114" fill="#FFFFFF" width="4.179" height="3.736"/>
	<rect x="37.971" y="60.637" fill="#FFFFFF" width="4.179" height="3.735"/>
	<rect x="51.772" y="47.974" fill="#FFFFFF" width="4.179" height="3.736"/>
	<rect x="51.772" y="54.114" fill="#FFFFFF" width="4.179" height="3.736"/>
	<rect x="51.772" y="60.637" fill="#FFFFFF" width="4.179" height="3.735"/>
	<rect x="57.915" y="47.974" fill="#FFFFFF" width="4.177" height="3.736"/>
	<rect x="57.915" y="54.114" fill="#FFFFFF" width="4.177" height="3.736"/>
	<rect x="57.915" y="60.637" fill="#FFFFFF" width="4.177" height="3.735"/>
	<path fill="#FFFFFF" d="M40.313,38.857h0.38c1.364,0,2.469-1.105,2.469-2.469v-0.824v-2.405c0-1.363-1.105-2.469-2.469-2.469h-0.38
		c-1.364,0-2.469,1.105-2.469,2.469v2.405v0.824C37.844,37.752,38.949,38.857,40.313,38.857z"/>
	<path fill="#FFFFFF" d="M59.561,38.857h0.38c1.362,0,2.469-1.105,2.469-2.469v-0.824v-2.405c0-1.363-1.106-2.469-2.469-2.469h-0.38
		c-1.364,0-2.47,1.105-2.47,2.469v2.405v0.824C57.091,37.752,58.196,38.857,59.561,38.857z"/>
</g>
<g>
	<path fill="#FFFFFF" d="M77.157,47.65c-0.007-2.913-2.151-5.021-5.08-5.023c-9.273-0.003-18.548-0.005-27.824,0
		c-3.096,0.001-5.208,2.018-5.233,5.125c-0.047,5.871-0.047,11.744-0.007,17.615c0.02,3,2.186,5.051,5.189,5.054
		c4.616,0.003,9.235,0,13.852,0c0,0.001,0,0.004,0,0.005c4.656,0,9.314,0.006,13.973-0.002c2.993-0.006,5.13-2.113,5.135-5.099
		C77.175,59.434,77.172,53.541,77.157,47.65z M43.991,45.701c9.511-0.005,19.024-0.007,28.535-0.001
		c1.439,0,2.234,1.025,1.931,2.495c-10.749,0-21.506,0-32.261,0C41.794,46.874,42.626,45.701,43.991,45.701z M74.54,56.295
		c0,2.965,0.007,5.928,0,8.893c-0.003,1.477-0.686,2.164-2.15,2.164c-9.431,0.002-18.86,0-28.29-0.002
		c-1.264-0.002-2.012-0.721-2.017-1.992c-0.011-3.96,0.005-7.918-0.016-11.877c-0.002-0.517,0.227-0.575,0.647-0.575
		c6.741,0.009,13.487,0.007,20.23,0.007c3.403,0.002,6.805,0,10.206,0c0.434,0,0.865,0,1.39,0
		C74.54,54.11,74.54,55.204,74.54,56.295z"/>
	<path fill="#FFFFFF" d="M36.133,45.544c0.809-3.586,3.861-6.024,7.586-6.044c3.701-0.021,7.4-0.003,11.105-0.003
		c2.046,0,4.093,0,6.26,0c-0.189-0.396-0.32-0.68-0.459-0.962c-0.97-1.96-1.948-3.915-2.906-5.879
		c-1.408-2.88-4.199-3.861-7.09-2.439c-8.255,4.064-16.504,8.14-24.749,12.219c-2.867,1.417-3.816,4.189-2.405,7.061
		c2.592,5.28,5.206,10.549,7.836,15.809c0.26,0.521,0.639,1.024,1.071,1.414c1.29,1.156,2.797,1.559,4.565,1.147
		c-0.114-0.245-0.226-0.415-0.272-0.6c-0.251-1.035-0.688-2.071-0.699-3.111c-0.068-5.632-0.038-11.265-0.026-16.897
		C35.952,46.688,36.007,46.102,36.133,45.544z"/>
	<path fill="#FFFFFF" d="M52.707,59.028c-1.195-0.218-2.22,0.185-3.048,1.034c-1.562-1.385-3.424-1.432-4.706-0.164
		c-1.214,1.204-1.263,3.178-0.121,4.428c0.986,1.074,2.964,1.699,4.813-0.01c1.823,1.367,3.47,1.396,4.739,0.105
		c1.119-1.141,1.229-2.936,0.255-4.2C54.146,59.578,53.496,59.17,52.707,59.028z"/>
</g>
<g>
	<path fill="#7AB742" d="M50,99C22.981,99,1,77.02,1,50C1,22.981,22.981,1,50,1s49,21.981,49,49C99,77.02,77.019,99,50,99z"/>
</g>
<g>
	<path fill="#FFFFFF" d="M78.896,60.78c-0.06-2.799-0.014-19.591-0.011-22.144c0.002-1.791-0.891-2.707-2.708-2.708
		c-12.14-0.007-24.278-0.008-36.418,0.001c-1.812,0.001-2.831,1.016-2.833,2.81c-0.007,7.494-0.005,14.99,0.007,22.484
		c0.002,1.826,0.993,2.845,2.79,2.846c12.14,0.01,24.278,0.011,36.418-0.001c1.77-0.001,2.865-1.255,2.771-3.042
		C78.907,60.942,78.902,60.86,78.896,60.78z M39.039,39.403c-0.01-1.006,0.319-1.369,1.347-1.367
		c11.681,0.026,23.359,0.026,35.039,0c1.043-0.003,1.355,0.389,1.337,1.38c-0.029,1.521-0.021,8.49-0.018,14.228
		c-0.224-0.284-0.664-0.327-1.313-0.324c-7.955,0.045-27.082,0.01-35.037,0.043c-0.966,0.004-1.381-0.168-1.365-1.268
		C39.094,47.865,39.078,43.634,39.039,39.403z M75.264,61.907c-11.588-0.014-23.175-0.025-34.762,0.015
		c-1.175,0.005-1.457-0.386-1.487-1.498c-0.03-1.161,0.417-1.341,1.438-1.336c8.374,0.035,27.812,0.02,36.293,0.02
		c-0.001,0.93-0.003,1.657-0.008,2.093C76.547,61.913,75.985,61.907,75.264,61.907z"/>
	<path fill="#FFFFFF" d="M35.189,47.588c0-2.726,0-2.757-2.772-2.813c-0.769-0.015-1.055-0.219-1.019-1.011
		c0.056-1.262,0.015-2.528,0.015-3.912c-0.274,0.152-0.405,0.192-0.49,0.277c-3.156,3.146-6.288,6.315-9.476,9.431
		c-0.679,0.662-0.282,0.966,0.162,1.408c2.964,2.95,5.913,5.913,8.88,8.858c0.231,0.23,0.401,0.657,0.923,0.469
		c0-0.681,0-1.368,0-2.056c0-2.698,0-2.743,2.659-2.785c0.964-0.015,1.145-0.415,1.13-1.253
		C35.162,51.999,35.189,49.793,35.189,47.588z"/>
	<path fill="#FFFFFF" d="M47.189,50.842c0.078,0.026,0.18,0.046,0.313,0.062c0.13,0.016,0.293,0.023,0.486,0.023
		c0.201,0,0.365-0.008,0.492-0.023c0.128-0.016,0.229-0.035,0.308-0.062c0.077-0.025,0.131-0.059,0.165-0.1
		c0.032-0.041,0.051-0.087,0.051-0.139v-3.171h0.828c0.655,0,1.225-0.077,1.709-0.23c0.483-0.154,0.892-0.378,1.225-0.673
		c0.332-0.294,0.586-0.656,0.76-1.086c0.175-0.431,0.263-0.924,0.263-1.482c0-0.404-0.058-0.769-0.171-1.094
		c-0.111-0.325-0.276-0.609-0.491-0.854c-0.215-0.242-0.475-0.443-0.778-0.603c-0.305-0.158-0.605-0.268-0.903-0.326
		c-0.296-0.06-0.552-0.098-0.764-0.115c-0.213-0.019-0.436-0.027-0.672-0.027h-2.343c-0.204,0-0.369,0.061-0.495,0.181
		s-0.188,0.301-0.188,0.541v8.939c0,0.052,0.015,0.098,0.046,0.139C47.059,50.783,47.114,50.816,47.189,50.842z M49.004,42.502
		h0.859c0.209,0,0.413,0.014,0.609,0.042c0.197,0.028,0.387,0.096,0.564,0.203c0.179,0.108,0.332,0.274,0.453,0.5
		c0.124,0.226,0.185,0.512,0.185,0.859c0,0.257-0.036,0.493-0.106,0.711c-0.073,0.218-0.178,0.404-0.316,0.561
		c-0.138,0.156-0.315,0.278-0.534,0.365c-0.216,0.087-0.486,0.13-0.809,0.13h-0.905V42.502z"/>
	<path fill="#FFFFFF" d="M53.404,50.542c-0.016,0.108,0.002,0.191,0.053,0.25c0.052,0.059,0.144,0.096,0.276,0.111
		c0.135,0.016,0.317,0.023,0.552,0.023c0.222,0,0.398-0.006,0.534-0.016c0.137-0.011,0.242-0.03,0.314-0.058
		c0.075-0.028,0.129-0.066,0.162-0.115c0.034-0.049,0.061-0.108,0.081-0.181l0.63-1.942h3.732l0.668,1.996
		c0.02,0.067,0.046,0.12,0.076,0.162c0.032,0.04,0.084,0.072,0.162,0.095c0.077,0.023,0.187,0.038,0.335,0.047
		c0.144,0.007,0.347,0.012,0.609,0.012c0.25,0,0.448-0.007,0.593-0.021c0.141-0.012,0.24-0.046,0.299-0.1
		c0.056-0.053,0.076-0.134,0.061-0.241c-0.015-0.107-0.054-0.253-0.114-0.438l-3.072-8.809c-0.031-0.097-0.069-0.174-0.111-0.23
		c-0.044-0.057-0.116-0.099-0.216-0.126c-0.1-0.029-0.239-0.047-0.418-0.055c-0.18-0.008-0.42-0.012-0.723-0.012
		c-0.261,0-0.472,0.004-0.629,0.012c-0.159,0.008-0.283,0.025-0.373,0.055c-0.09,0.027-0.155,0.068-0.196,0.122
		s-0.075,0.124-0.106,0.211l-3.064,8.816C53.457,50.292,53.419,50.436,53.404,50.542z M57.857,42.84h0.008l1.405,4.224h-2.819
		L57.857,42.84z"/>
	<path fill="#FFFFFF" d="M61.805,41.695l2.719,5.414v3.494c0,0.052,0.016,0.098,0.046,0.139s0.086,0.074,0.165,0.1
		c0.08,0.026,0.184,0.046,0.311,0.062c0.129,0.016,0.292,0.023,0.491,0.023c0.196,0,0.358-0.008,0.488-0.023
		c0.131-0.016,0.235-0.035,0.311-0.062c0.077-0.025,0.134-0.059,0.165-0.1c0.034-0.041,0.051-0.087,0.051-0.139v-3.494l2.719-5.414
		c0.092-0.185,0.154-0.33,0.185-0.438s0.016-0.188-0.043-0.242c-0.06-0.053-0.17-0.087-0.33-0.1s-0.389-0.02-0.68-0.02
		c-0.221,0-0.397,0.006-0.529,0.016c-0.134,0.011-0.238,0.03-0.315,0.062c-0.076,0.031-0.134,0.07-0.173,0.119
		c-0.039,0.048-0.07,0.114-0.097,0.195l-1.09,2.427c-0.097,0.235-0.197,0.484-0.3,0.745c-0.102,0.262-0.202,0.53-0.299,0.807h-0.017
		c-0.106-0.286-0.213-0.561-0.317-0.822c-0.105-0.261-0.212-0.509-0.319-0.745l-1.105-2.441c-0.036-0.072-0.073-0.13-0.11-0.177
		c-0.039-0.046-0.1-0.083-0.182-0.111c-0.082-0.027-0.192-0.047-0.333-0.058c-0.142-0.01-0.331-0.016-0.566-0.016
		c-0.28,0-0.5,0.007-0.66,0.02c-0.158,0.013-0.268,0.047-0.325,0.1c-0.059,0.054-0.074,0.134-0.047,0.238
		C61.645,41.358,61.708,41.506,61.805,41.695z"/>
</g>
</svg>
