<?xml version="1.0" encoding="utf-8"?>
<!-- Generator: Adobe Illustrator 16.0.0, SVG Export Plug-In . SVG Version: 6.00 Build 0)  -->
<!DOCTYPE svg PUBLIC "-//W3C//DTD SVG 1.1//EN" "http://www.w3.org/Graphics/SVG/1.1/DTD/svg11.dtd">
<svg version="1.1" id="Layer_1" xmlns="http://www.w3.org/2000/svg" xmlns:xlink="http://www.w3.org/1999/xlink" x="0px" y="0px"
	 width="100px" height="100px" viewBox="0 0 100 100" enable-background="new 0 0 100 100" xml:space="preserve">
<g>
	<path fill="#FFFFFF" d="M63.778,35.564v1.655c0,2.066-1.675,3.741-3.74,3.741h-0.576c-2.066,0-3.741-1.675-3.741-3.741v-1.655
		H44.531v1.655c0,2.066-1.674,3.741-3.74,3.741h-0.577c-2.066,0-3.741-1.675-3.741-3.741v-1.655h-5.657V69.31h38.366V35.564H63.778z
		 M66.303,66.714H33.697V45.125h32.606V66.714z"/>
	<rect x="44.682" y="47.974" fill="#FFFFFF" width="4.178" height="3.736"/>
	<rect x="44.682" y="54.114" fill="#FFFFFF" width="4.178" height="3.736"/>
	<rect x="44.682" y="60.637" fill="#FFFFFF" width="4.178" height="3.735"/>
	<rect x="37.971" y="54.114" fill="#FFFFFF" width="4.179" height="3.736"/>
	<rect x="37.971" y="60.637" fill="#FFFFFF" width="4.179" height="3.735"/>
	<rect x="51.772" y="47.974" fill="#FFFFFF" width="4.179" height="3.736"/>
	<rect x="51.772" y="54.114" fill="#FFFFFF" width="4.179" height="3.736"/>
	<rect x="51.772" y="60.637" fill="#FFFFFF" width="4.179" height="3.735"/>
	<rect x="57.915" y="47.974" fill="#FFFFFF" width="4.177" height="3.736"/>
	<rect x="57.915" y="54.114" fill="#FFFFFF" width="4.177" height="3.736"/>
	<rect x="57.915" y="60.637" fill="#FFFFFF" width="4.177" height="3.735"/>
	<path fill="#FFFFFF" d="M40.313,38.857h0.38c1.364,0,2.469-1.105,2.469-2.469v-0.824v-2.405c0-1.363-1.105-2.469-2.469-2.469h-0.38
		c-1.364,0-2.469,1.105-2.469,2.469v2.405v0.824C37.844,37.752,38.949,38.857,40.313,38.857z"/>
	<path fill="#FFFFFF" d="M59.561,38.857h0.38c1.362,0,2.469-1.105,2.469-2.469v-0.824v-2.405c0-1.363-1.106-2.469-2.469-2.469h-0.38
		c-1.364,0-2.47,1.105-2.47,2.469v2.405v0.824C57.091,37.752,58.196,38.857,59.561,38.857z"/>
</g>
<g>
	<path fill="#FCAF17" d="M50,99C22.981,99,1,77.02,1,50C1,22.981,22.981,1,50,1s49,21.981,49,49C99,77.02,77.019,99,50,99z"/>
</g>
<g>
	<path fill="#FFFFFF" d="M77.157,47.65c-0.007-2.913-2.151-5.021-5.08-5.023c-9.273-0.003-18.548-0.005-27.824,0
		c-3.096,0.001-5.208,2.018-5.233,5.125c-0.047,5.871-0.047,11.744-0.007,17.615c0.02,3,2.186,5.051,5.189,5.054
		c4.616,0.003,9.235,0,13.852,0c0,0.001,0,0.004,0,0.005c4.656,0,9.314,0.006,13.973-0.002c2.993-0.006,5.13-2.113,5.135-5.099
		C77.175,59.434,77.172,53.541,77.157,47.65z M43.991,45.701c9.511-0.005,19.024-0.007,28.535-0.001
		c1.439,0,2.234,1.025,1.931,2.495c-10.749,0-21.506,0-32.261,0C41.794,46.874,42.626,45.701,43.991,45.701z M74.54,56.295
		c0,2.965,0.007,5.928,0,8.893c-0.003,1.477-0.686,2.164-2.15,2.164c-9.431,0.002-18.86,0-28.29-0.002
		c-1.264-0.002-2.012-0.721-2.017-1.992c-0.011-3.96,0.005-7.918-0.016-11.877c-0.002-0.517,0.227-0.575,0.647-0.575
		c6.741,0.009,13.487,0.007,20.23,0.007c3.403,0.002,6.805,0,10.206,0c0.434,0,0.865,0,1.39,0
		C74.54,54.11,74.54,55.204,74.54,56.295z"/>
	<path fill="#FFFFFF" d="M36.133,45.544c0.809-3.586,3.861-6.024,7.586-6.044c3.701-0.021,7.4-0.003,11.105-0.003
		c2.046,0,4.093,0,6.26,0c-0.189-0.396-0.32-0.68-0.459-0.962c-0.97-1.96-1.948-3.915-2.906-5.879
		c-1.408-2.88-4.199-3.861-7.09-2.439c-8.255,4.064-16.504,8.14-24.749,12.219c-2.867,1.417-3.816,4.189-2.405,7.061
		c2.592,5.28,5.206,10.549,7.836,15.809c0.26,0.521,0.639,1.024,1.071,1.414c1.29,1.156,2.797,1.559,4.565,1.147
		c-0.114-0.245-0.226-0.415-0.272-0.6c-0.251-1.035-0.688-2.071-0.699-3.111c-0.068-5.632-0.038-11.265-0.026-16.897
		C35.952,46.688,36.007,46.102,36.133,45.544z"/>
	<path fill="#FFFFFF" d="M52.707,59.028c-1.195-0.218-2.22,0.185-3.048,1.034c-1.562-1.385-3.424-1.432-4.706-0.164
		c-1.214,1.204-1.263,3.178-0.121,4.428c0.986,1.074,2.964,1.699,4.813-0.01c1.823,1.367,3.47,1.396,4.739,0.105
		c1.119-1.141,1.229-2.936,0.255-4.2C54.146,59.578,53.496,59.17,52.707,59.028z"/>
</g>
</svg>
